<?xml version="1.0" encoding="iso-8859-1"?>
<!-- Generator: Adobe Illustrator 19.0.0, SVG Export Plug-In . SVG Version: 6.00 Build 0)  -->
<svg version="1.1" id="Capa_1" xmlns="http://www.w3.org/2000/svg" xmlns:xlink="http://www.w3.org/1999/xlink" x="0px" y="0px"
	 viewBox="0 0 512 512" style="enable-background:new 0 0 512 512;" xml:space="preserve">
<g>
	<path style="fill:#B40754;" d="M355.823,227.273l-15.814-25.492c12.83-7.96,20.489-21.688,20.489-36.723
		c0-15.037-7.659-28.766-20.489-36.724l15.814-25.494c21.712,13.469,34.675,36.727,34.675,62.218
		C390.498,190.545,377.535,213.803,355.823,227.273z"/>
	<path style="fill:#B40754;" d="M388.113,278.57l-15.815-25.494c30.74-19.067,49.092-51.972,49.092-88.019
		c0-36.049-18.352-68.954-49.091-88.021l15.814-25.494c39.622,24.577,63.277,67.014,63.277,113.516
		C451.391,211.558,427.735,253.993,388.113,278.57z"/>
	<path style="fill:#B40754;" d="M420.287,329.57l-15.814-25.494C453.018,273.964,482,221.995,482,165.059
		c0-56.939-28.982-108.909-77.527-139.023l15.814-25.494c27.496,17.057,50.481,40.904,66.471,68.966
		C503.272,98.488,512,131.53,512,165.059s-8.728,66.569-25.242,95.549C470.768,288.667,447.782,312.514,420.287,329.57z"/>
</g>
<g>
	<path style="fill:#E70C6A;" d="M156.177,227.273c-21.712-13.47-34.675-36.728-34.675-62.215c0-25.49,12.963-48.749,34.675-62.218
		l15.814,25.494c-12.83,7.958-20.489,21.687-20.489,36.724c0,15.035,7.659,28.763,20.489,36.723L156.177,227.273z"/>
	<path style="fill:#E70C6A;" d="M123.887,278.57C84.265,253.993,60.61,211.558,60.61,165.058c0-46.502,23.655-88.938,63.277-113.516
		L139.7,77.036c-30.739,19.067-49.091,51.973-49.091,88.021c0,36.047,18.352,68.951,49.092,88.019L123.887,278.57z"/>
	<path style="fill:#E70C6A;" d="M91.713,329.57c-27.495-17.056-50.48-40.903-66.471-68.963C8.729,231.628,0,198.588,0,165.059
		s8.729-66.57,25.242-95.551C41.231,41.446,64.217,17.598,91.713,0.541l15.814,25.494C58.982,56.149,30,108.12,30,165.059
		c0,56.936,28.982,108.905,77.527,139.018L91.713,329.57z"/>
</g>
<polygon style="fill:#C5C9F7;" points="372.36,511.458 340.99,511.458 299.97,377.469 290.78,347.469 270.6,281.569 242.23,281.569 
	221.83,347.469 212.54,377.469 171.05,511.458 139.65,511.458 181.13,377.469 190.42,347.469 220.11,251.57 292.78,251.57 
	322.15,347.469 331.33,377.469 "/>
<path style="fill:#00459D;" d="M316.74,165.06c0,33.49-27.25,60.74-60.74,60.74s-60.74-27.25-60.74-60.74
	c0-33.5,27.25-60.75,60.74-60.75S316.74,131.56,316.74,165.06z"/>
<path style="fill:#002D6B;" d="M256,225.799v-121.49c33.49,0,60.74,27.25,60.74,60.75C316.74,198.549,289.49,225.799,256,225.799z"
	/>
<polygon style="fill:#97A1F0;" points="372.36,511.458 340.99,511.458 299.97,377.469 290.78,347.469 270.6,281.569 256,281.569 
	256,251.57 292.78,251.57 322.15,347.469 331.33,377.469 "/>
<polygon style="fill:#00459D;" points="331.33,377.469 181.13,377.469 190.42,347.469 322.15,347.469 "/>
<polygon style="fill:#002D6B;" points="331.33,377.469 256,377.469 256,347.469 322.15,347.469 "/>
<g>
</g>
<g>
</g>
<g>
</g>
<g>
</g>
<g>
</g>
<g>
</g>
<g>
</g>
<g>
</g>
<g>
</g>
<g>
</g>
<g>
</g>
<g>
</g>
<g>
</g>
<g>
</g>
<g>
</g>
</svg>
